<svg xmlns="http://www.w3.org/2000/svg" viewBox="0 0 150 150"><title>Icon 1BahnQL_Icon</title><g id="Ebene_5" data-name="Ebene 5"><path d="M16.18,49.89a7.08,7.08,0,1,1-7.08-7A7,7,0,0,1,16.18,49.89Zm31.35-38a7,7,0,1,0,7.08,7A7,7,0,0,0,47.53,11.89Zm0,56a7,7,0,1,0,7.08,7A7,7,0,0,0,47.53,67.89Zm0,52a7,7,0,1,0,7.08,7A7,7,0,0,0,47.53,119.89ZM13.6,44.26,42,23.79m5.5,2.1v42m0,52v-38"/><path d="M47.53,135.89a9,9,0,0,1-2-17.78V83.67a9,9,0,0,1,0-17.55V27.67a9.11,9.11,0,0,1-3.33-1.5L16.49,44.65a8.88,8.88,0,0,1,1.71,5.24,9.08,9.08,0,1,1-4.83-7.95L39.51,23.14a8.86,8.86,0,0,1-1.08-4.25,9.1,9.1,0,1,1,11.12,8.78V66.11a9,9,0,0,1,0,17.55v34.45a9,9,0,0,1-2,17.78Zm0-14a5,5,0,1,0,5.06,5A5,5,0,0,0,47.53,121.89Zm0-52a5,5,0,1,0,5.06,5A5,5,0,0,0,47.53,69.89ZM9.1,44.89a5,5,0,1,0,5.06,5A5,5,0,0,0,9.1,44.89Zm38.43-31a5,5,0,1,0,5.06,5A5,5,0,0,0,47.53,13.89Z"/><path d="M135.09,116.89h0l-75.42,0v-4l75.43,0a12,12,0,0,0,8.14-4c2.67-3,3.14-8.78,2.43-13.2-.8-4.91-4.38-12.12-10.08-20.3a107.12,107.12,0,0,0-24.93-25.12C99.19,42,88.35,36.08,72.73,33.77l-.83-.12a73.82,73.82,0,0,0-12.62-1v-4a77.3,77.3,0,0,1,13.23,1l.82.12C90.73,32.38,102.69,39.58,113,47a111.25,111.25,0,0,1,25.89,26.1C145,81.87,148.75,89.45,149.66,95c.81,5,.4,12.25-3.39,16.48A16.08,16.08,0,0,1,135.09,116.89Z"/><path d="M73.9,82c-8.17,0-14.56-.1-14.65-.1l.07-4c20.1.32,42.16,0,48.1-1.13-5.29-10.16-23-19.33-31.64-21.56a113.35,113.35,0,0,0-14-2.49l-.39,0a10.38,10.38,0,0,0-2.15-.14v-4a14.18,14.18,0,0,1,2.71.18l.34,0a117.1,117.1,0,0,1,14.47,2.59c9.47,2.45,30.18,12.79,35.12,25.6a2.25,2.25,0,0,1-.27,2.14c-.81,1.14-1.82,2.56-27.72,2.88C80.5,82,77.06,82,73.9,82Z"/></g></svg>